<svg xmlns="http://www.w3.org/2000/svg" xmlns:xlink="http://www.w3.org/1999/xlink" width="23" height="23" viewBox="0 0 23 23">
  <defs>
    <clipPath id="clip-path">
      <rect id="Rectangle_26899" data-name="Rectangle 26899" width="23" height="23" transform="translate(47.092 475)" fill="#fff" stroke="#707070" stroke-width="1"/>
    </clipPath>
  </defs>
  <g id="Flat_50" data-name="Flat 50" transform="translate(-47.092 -475)" clip-path="url(#clip-path)">
    <g id="_06-Flash_sales" data-name="06-Flash sales" transform="translate(50.06 475)">
      <path id="Path_142271" data-name="Path 142271" d="M15.814,23.531a6.612,6.612,0,0,0,2.753-.556,5.345,5.345,0,0,0,3.286-5.008c0-3.339-.742-4.08-1.855-6.306a5.374,5.374,0,0,1,0-4.451,4.013,4.013,0,0,0-2.226,1.484C17.773.9,12.58.532,12.58.532a5.6,5.6,0,0,1-.742,5.193c-1.855,2.6-3.71,4.08-4.451,7.048a2.053,2.053,0,0,1-1.113-2.226A14.5,14.5,0,0,0,4.79,17.225c0,4.474,3.584,5.787,5.348,6.162a6.874,6.874,0,0,0,1.427.145Z" transform="translate(-4.79 -0.532)" fill="#c5c5c5"/>
      <path id="Path_142272" data-name="Path 142272" d="M11.558,26.273a6.23,6.23,0,0,1-3.827-5.74,7.189,7.189,0,0,1,3.319-6.5s-.927,1.718.029,2.2c0,0,1.6-5.213,5.906-6.648a4.446,4.446,0,0,0-.547,4.451c.957,2.87,4.2,3.514,4.256,6.677v.371a5.394,5.394,0,0,1-.816,3.047,3.827,3.827,0,0,1-3.538,2.147Z" transform="translate(-5.681 -3.274)" fill="#d8d8d8"/>
      <path id="Path_142273" data-name="Path 142273" d="M11.923,24.432A3.813,3.813,0,0,1,9.58,20.918c0-2.928,1.464-4.1,1.464-4.1s0,1.171.586,1.464c0,0,.586-4.1,3.221-4.977,0,0-.878.586-.293,2.342s3.221,2.342,3.221,5.27v.255a3.6,3.6,0,0,1-.536,1.944,2.715,2.715,0,0,1-2.392,1.314Z" transform="translate(-5.147 -1.806)" fill="#acacac"/>
      <g id="Group_93935" data-name="Group 93935" transform="translate(5.935 16.692)" opacity="0">
        <path id="Path_142274" data-name="Path 142274" d="M13.677,28.612a.371.371,0,0,1-.262-.633l4.451-4.451a.371.371,0,1,1,.525.525L13.939,28.5A.371.371,0,0,1,13.677,28.612Z" transform="translate(-13.306 -23.047)" fill="#fbfbfb"/>
        <path id="Path_142275" data-name="Path 142275" d="M18.144,30.434a1.113,1.113,0,1,1,1.113-1.113,1.113,1.113,0,0,1-1.113,1.113Zm0-1.484a.371.371,0,1,0,.371.371A.371.371,0,0,0,18.144,28.95Z" transform="translate(-14.435 -24.499)" fill="#fbfbfb"/>
        <path id="Path_142276" data-name="Path 142276" d="M14.951,25.112A1.113,1.113,0,1,1,16.064,24,1.113,1.113,0,0,1,14.951,25.112Zm0-1.484a.371.371,0,1,0,.371.371A.371.371,0,0,0,14.951,23.628Z" transform="translate(-13.467 -22.886)" fill="#fbfbfb"/>
      </g>
    </g>
  </g>
</svg>
