<svg xmlns="http://www.w3.org/2000/svg" xmlns:xlink="http://www.w3.org/1999/xlink" width="23" height="23" viewBox="0 0 23 23">
  <defs>
    <clipPath id="clip-path">
      <rect id="Rectangle_23529" data-name="Rectangle 23529" width="23" height="23" transform="translate(47.092 475)" fill="#fff" stroke="#707070" stroke-width="1"/>
    </clipPath>
  </defs>
  <g id="Hot_Deals" data-name="Hot Deals" transform="translate(-47.092 -475)" clip-path="url(#clip-path)">
    <g id="_06-Flash_sales" data-name="06-Flash sales" transform="translate(50.06 475)">
      <path id="Path_139952" data-name="Path 139952" d="M15.814,23.531a6.612,6.612,0,0,0,2.753-.556,5.345,5.345,0,0,0,3.286-5.008c0-3.339-.742-4.08-1.855-6.306a5.374,5.374,0,0,1,0-4.451,4.013,4.013,0,0,0-2.226,1.484C17.773.9,12.58.532,12.58.532a5.6,5.6,0,0,1-.742,5.193c-1.855,2.6-3.71,4.08-4.451,7.048a2.053,2.053,0,0,1-1.113-2.226A14.5,14.5,0,0,0,4.79,17.225c0,4.474,3.584,5.787,5.348,6.162a6.874,6.874,0,0,0,1.427.145Z" transform="translate(-4.79 -0.532)" fill="#ff421d"/>
      <path id="Path_139953" data-name="Path 139953" d="M11.558,26.273a6.23,6.23,0,0,1-3.827-5.74,7.189,7.189,0,0,1,3.319-6.5s-.927,1.718.029,2.2c0,0,1.6-5.213,5.906-6.648a4.446,4.446,0,0,0-.547,4.451c.957,2.87,4.2,3.514,4.256,6.677v.371a5.394,5.394,0,0,1-.816,3.047,3.827,3.827,0,0,1-3.538,2.147Z" transform="translate(-5.681 -3.274)" fill="#fc9e20"/>
      <path id="Path_139954" data-name="Path 139954" d="M12.548,27.4A4.831,4.831,0,0,1,9.58,22.951c0-3.71,1.855-5.193,1.855-5.193s0,1.484.742,1.855c0,0,.742-5.193,4.08-6.306,0,0-1.113.742-.371,2.968s4.08,2.968,4.08,6.677v.323a4.558,4.558,0,0,1-.679,2.463,3.44,3.44,0,0,1-3.03,1.665Z" transform="translate(-6.242 -4.403)" fill="#e03e3e"/>
      <g id="Group_82837" data-name="Group 82837" transform="translate(5.935 15.58)">
        <path id="Path_139955" data-name="Path 139955" d="M13.677,28.612a.371.371,0,0,1-.262-.633l4.451-4.451a.371.371,0,1,1,.525.525L13.939,28.5A.371.371,0,0,1,13.677,28.612Z" transform="translate(-13.306 -23.047)" fill="#fbfbfb"/>
        <path id="Path_139956" data-name="Path 139956" d="M18.144,30.434a1.113,1.113,0,1,1,1.113-1.113,1.113,1.113,0,0,1-1.113,1.113Zm0-1.484a.371.371,0,1,0,.371.371A.371.371,0,0,0,18.144,28.95Z" transform="translate(-14.435 -24.499)" fill="#fbfbfb"/>
        <path id="Path_139957" data-name="Path 139957" d="M14.951,25.112A1.113,1.113,0,1,1,16.064,24,1.113,1.113,0,0,1,14.951,25.112Zm0-1.484a.371.371,0,1,0,.371.371A.371.371,0,0,0,14.951,23.628Z" transform="translate(-13.467 -22.886)" fill="#fbfbfb"/>
      </g>
    </g>
  </g>
</svg>
