<svg xmlns="http://www.w3.org/2000/svg" xmlns:xlink="http://www.w3.org/1999/xlink" width="60" height="60" viewBox="0 0 60 60">
  <defs>
    <clipPath id="clip-path">
      <rect id="Rectangle_24362" data-name="Rectangle 24362" width="38" height="38" transform="translate(0.143 0.141)" fill="#fff" stroke="#707070" stroke-width="1"/>
    </clipPath>
  </defs>
  <g id="Info_icon" transform="translate(-24 -567)">
    <rect id="Rectangle_19426" data-name="Rectangle 19426" width="60" height="60" rx="5" transform="translate(24 567)" fill="#7580f2"/>
    <g id="Mask_Group_348" data-name="Mask Group 348" transform="translate(34.857 577.858)" clip-path="url(#clip-path)">
      <g id="information-button" transform="translate(0.241 0.239)">
        <path id="Path_142140" data-name="Path 142140" d="M18.5,0a18.5,18.5,0,1,0,18.5,18.5A18.5,18.5,0,0,0,18.5,0Zm3.85,28.665q-1.428.564-2.278.858a6.01,6.01,0,0,1-1.976.3,3.938,3.938,0,0,1-2.688-.844,2.723,2.723,0,0,1-.957-2.14,7.775,7.775,0,0,1,.07-1.032c.049-.351.125-.745.23-1.188l1.192-4.209c.1-.4.2-.788.268-1.145a5.075,5.075,0,0,0,.106-.991,1.526,1.526,0,0,0-.332-1.123,1.886,1.886,0,0,0-1.273-.315,3.341,3.341,0,0,0-.947.141c-.321.1-.6.188-.828.276l.315-1.3q1.17-.477,2.239-.816a6.615,6.615,0,0,1,2.02-.341,3.865,3.865,0,0,1,2.649.83,2.757,2.757,0,0,1,.93,2.155q0,.275-.064.966a6.465,6.465,0,0,1-.238,1.27l-1.185,4.2c-.1.337-.183.722-.261,1.152a6.094,6.094,0,0,0-.114.98,1.408,1.408,0,0,0,.374,1.14,2.1,2.1,0,0,0,1.295.3,3.756,3.756,0,0,0,.98-.152,5.573,5.573,0,0,0,.792-.266Zm-.21-17.033a2.829,2.829,0,0,1-2,.77,2.858,2.858,0,0,1-2-.77A2.459,2.459,0,0,1,17.3,9.764a2.484,2.484,0,0,1,.835-1.873,2.838,2.838,0,0,1,2-.778,2.806,2.806,0,0,1,2,.778,2.523,2.523,0,0,1,0,3.741Z" fill="#fff"/>
      </g>
    </g>
  </g>
</svg>
