<svg xmlns="http://www.w3.org/2000/svg" xmlns:xlink="http://www.w3.org/1999/xlink" width="23" height="23" viewBox="0 0 23 23">
  <defs>
    <linearGradient id="linear-gradient" x1="0.076" y1="0.689" x2="1.228" y2="0.134" gradientUnits="objectBoundingBox">
      <stop offset="0" stop-color="#f9a29c"/>
      <stop offset="1" stop-color="#f44336"/>
    </linearGradient>
    <clipPath id="clip-path">
      <rect id="Rectangle_23606" data-name="Rectangle 23606" width="23" height="23" transform="translate(0 0)" stroke="#707070" stroke-width="1" opacity="0" fill="url(#linear-gradient)"/>
    </clipPath>
    <linearGradient id="linear-gradient-2" x1="-0.127" y1="0.559" x2="1" y2="0.5" gradientUnits="objectBoundingBox">
      <stop offset="0" stop-color="#ecc74f"/>
      <stop offset="1" stop-color="#54cf2e"/>
    </linearGradient>
    <clipPath id="clip-path-2">
      <path id="SVGID_3_" d="M4.3,4.27H13.26v8.964H4.3Z" transform="translate(-4.295 -4.27)"/>
    </clipPath>
  </defs>
  <g id="Most_viewed" data-name="Most viewed" transform="translate(-24 -655)">
    <g id="Mask_Group_192" data-name="Mask Group 192" transform="translate(24 655)" clip-path="url(#clip-path)">
      <path id="box" d="M20.813,7.953l-8.039,4.824L4.731,7.953l-.687-.413,8.548-5.133a.35.35,0,0,1,.363,0l8.551,5.129Zm-17.128.2v8.53a.36.36,0,0,0,.174.306l8.559,5.137V13.392L4.4,8.58Zm18.177,0v8.53a.36.36,0,0,1-.174.306l-8.559,5.137V13.392L21.151,8.58ZM20.418,15.5l-1.779,1.067a.356.356,0,1,0,.363.612l1.779-1.067a.356.356,0,1,0-.363-.612Zm0-1.423-1.779,1.067a.356.356,0,1,0,.363.612l1.779-1.067a.356.356,0,1,0-.363-.612Z" transform="translate(-2.76 0.874)" fill="url(#linear-gradient-2)"/>
    </g>
    <g id="search_4_" data-name="search (4)" transform="translate(32.238 655)">
      <g id="Group_82816" data-name="Group 82816" transform="translate(9.121 9.124)">
        <path id="Path_139892" data-name="Path 139892" d="M0,0H2.53V1.571H0Z" transform="translate(0 1.789) rotate(-45)" fill="#d3e6ed"/>
      </g>
      <g id="Group_82817" data-name="Group 82817" transform="translate(0 0)">
        <path id="Path_139893" data-name="Path 139893" d="M11.186,2.77a5.936,5.936,0,1,0,0,8.389,5.856,5.856,0,0,0,1.23-1.8,5.935,5.935,0,0,0-1.23-6.592m-1.027,7.363a4.483,4.483,0,0,1-5.756.494,4.591,4.591,0,0,1-.584-.493,4.483,4.483,0,1,1,6.34,0" transform="translate(-1.055 -1.031)" fill="#4f8013"/>
      </g>
      <g id="Group_82818" data-name="Group 82818" transform="translate(10.152 10.173)">
        <path id="Path_139894" data-name="Path 139894" d="M25.586,23.74l2.353,2.353a1.322,1.322,0,1,1-1.87,1.87L23.716,25.61Z" transform="translate(-23.716 -23.74)" fill="#4b2b11"/>
      </g>
      <g id="Group_82819" data-name="Group 82819" transform="translate(9.561 9.583)">
        <path id="Path_139895" data-name="Path 139895" d="M24.894,22.54a.4.4,0,0,1,0,.567l-1.811,1.81a.4.4,0,1,1-.567-.567l1.811-1.81a.4.4,0,0,1,.569,0" transform="translate(-22.397 -22.422)" fill="#4b2b11"/>
      </g>
      <g id="Group_82822" data-name="Group 82822" transform="translate(1.451 1.451)">
        <g id="Group_82821" data-name="Group 82821">
          <g id="Group_82820" data-name="Group 82820" clip-path="url(#clip-path-2)">
            <path id="Path_139896" data-name="Path 139896" d="M11.947,11.921a4.424,4.424,0,0,1-.585.493,4.485,4.485,0,0,1-5.17,0,4.561,4.561,0,0,1-.584-.493,4.482,4.482,0,1,1,6.339,0" transform="translate(-4.295 -4.27)" fill="#f8f8fa"/>
          </g>
        </g>
      </g>
      <g id="Group_82823" data-name="Group 82823" transform="translate(2.64 2.639)">
        <path id="Path_139897" data-name="Path 139897" d="M13.536,10.225a3.294,3.294,0,1,1-3.3-3.3,3.3,3.3,0,0,1,3.3,3.3" transform="translate(-6.948 -6.923)" fill="#ecc74f"/>
      </g>
      <g id="Group_82824" data-name="Group 82824" transform="translate(4.088 4.088)">
        <path id="Path_139898" data-name="Path 139898" d="M13.872,12.006a1.846,1.846,0,1,1-1.85-1.85,1.848,1.848,0,0,1,1.85,1.85" transform="translate(-10.181 -10.156)" fill="#2c3033"/>
      </g>
      <g id="Group_82825" data-name="Group 82825" transform="translate(4.896 6.506)">
        <path id="Path_139899" data-name="Path 139899" d="M12.673,15.9a.344.344,0,1,1-.345-.345.345.345,0,0,1,.345.345" transform="translate(-11.984 -15.553)" fill="#fff"/>
      </g>
      <g id="Group_82826" data-name="Group 82826" transform="translate(6.642 3.821)">
        <path id="Path_139900" data-name="Path 139900" d="M16.991,10.116a.554.554,0,1,1-.556-.556.555.555,0,0,1,.556.556" transform="translate(-15.883 -9.56)" fill="#fff"/>
      </g>
    </g>
  </g>
</svg>
