<svg xmlns="http://www.w3.org/2000/svg" xmlns:xlink="http://www.w3.org/1999/xlink" width="32" height="32" viewBox="0 0 32 32">
  <defs>
    <clipPath id="clip-path">
      <rect id="Rectangle_24209" data-name="Rectangle 24209" width="32" height="32" transform="translate(73.968 244.968)" fill="#fff" stroke="#707070" stroke-width="1"/>
    </clipPath>
  </defs>
  <g id="Personal_" data-name="Personal " transform="translate(-73.968 -244.968)" clip-path="url(#clip-path)">
    <g id="businessman" transform="translate(75.29 244.913)">
      <g id="Group_84290" data-name="Group 84290" transform="translate(19.468 22.222)">
        <g id="Group_84289" data-name="Group 84289">
          <path id="Path_142032" data-name="Path 142032" d="M16.655,12.384a5.039,5.039,0,1,0,5.039,5.039A5.034,5.034,0,0,0,16.655,12.384Zm-.079,2.43a.627.627,0,1,1-.627.627A.627.627,0,0,1,16.576,14.814Zm.951,5.218H15.8v-.839h.317V17.5H15.8v-.839H17.21v2.536h.317Z" transform="translate(-11.616 -12.384)" fill="#fff"/>
        </g>
      </g>
      <g id="Group_84292" data-name="Group 84292" transform="translate(5.92 0)">
        <g id="Group_84291" data-name="Group 84291">
          <path id="Path_142033" data-name="Path 142033" d="M16.471,8.379a5.555,5.555,0,0,0,.225-.832c.872-5.224-1.7-5.409-1.7-5.409A3.986,3.986,0,0,0,13.44.7,5.212,5.212,0,0,0,10.257.024,4.409,4.409,0,0,0,8.988.268,5.663,5.663,0,0,0,7.595.981,7.415,7.415,0,0,0,6.162,2.17,5.8,5.8,0,0,0,4.61,4.891a5.911,5.911,0,0,0,.013,2.655,5.556,5.556,0,0,0,.225.832c-.515-.046-1.123.251-.548,2.265.4,1.479.793,1.889,1.09,1.915a6.259,6.259,0,0,0,3.85,4.769,4.177,4.177,0,0,0,2.82-.007,6.348,6.348,0,0,0,3.857-4.762c.3-.026.68-.436,1.1-1.915C17.588,8.623,16.987,8.326,16.471,8.379Z" transform="translate(-4.066 0)" fill="#fff"/>
        </g>
      </g>
      <g id="Group_84294" data-name="Group 84294" transform="translate(0 16.832)">
        <g id="Group_84293" data-name="Group 84293">
          <path id="Path_142034" data-name="Path 142034" d="M24.944,12.993a2.756,2.756,0,0,0-1.565-1.024A19.56,19.56,0,0,1,17.7,9.38l-1.988,6.281-.376,1.182-.007-.013-.324,1-1.05-2.972c2.576-3.593-.522-3.553-.693-3.553s-3.269-.04-.693,3.553l-1.05,2.972-.324-1-.007.013-.376-1.182L8.822,9.38a19.456,19.456,0,0,1-5.68,2.589C.8,12.564.692,15.258.791,16.592c.02,0,.152,1.81.291,2.6,0,0,4.557,2.965,12.192,2.965a27.987,27.987,0,0,0,5.429-.522,6.687,6.687,0,0,1-.251-1.829A6.833,6.833,0,0,1,24.944,12.993Z" transform="translate(-0.767 -9.38)" fill="#fff"/>
        </g>
      </g>
    </g>
  </g>
</svg>
