<svg id="question_1_" data-name="question (1)" xmlns="http://www.w3.org/2000/svg" width="31.116" height="31.116" viewBox="0 0 31.116 31.116">
  <g id="Group_84336" data-name="Group 84336">
    <path id="Path_142051" data-name="Path 142051" d="M15.558,0A15.558,15.558,0,1,0,31.116,15.558,15.549,15.549,0,0,0,15.558,0ZM15.1,22.84a1.577,1.577,0,0,1,0-3.154,1.577,1.577,0,0,1,0,3.154Zm2.335-7.966a2.572,2.572,0,0,0-1.147,2.56c0,.389-.2.84-1.208.84-.84,0-1.126-.307-1.126-1.372a3.749,3.749,0,0,1,1.372-3.113c.676-.573,1.823-1.208,1.823-2.314,0-.942-.819-1.393-1.843-1.393-2.089,0-1.638,1.577-2.744,1.577a1.175,1.175,0,0,1-1.229-1.167c0-1.106,1.27-2.744,4.034-2.744,2.621,0,4.362,1.454,4.362,3.379S17.985,14.443,17.432,14.873Z" fill="#c5c5c5"/>
  </g>
</svg>
