<svg xmlns="http://www.w3.org/2000/svg" width="28.127" height="28.127" viewBox="0 0 28.127 28.127">
  <g id="calendar" opacity="0.3">
    <g id="Group_93355" data-name="Group 93355">
      <g id="Group_93354" data-name="Group 93354">
        <path id="Path_142209" data-name="Path 142209" d="M24.831,2.2H23.512V0h-2.2V2.2H6.812V0h-2.2V2.2H3.3A3.3,3.3,0,0,0,0,5.494V24.831a3.3,3.3,0,0,0,3.3,3.3H24.831a3.3,3.3,0,0,0,3.3-3.3V5.494A3.3,3.3,0,0,0,24.831,2.2Zm1.1,22.633a1.1,1.1,0,0,1-1.1,1.1H3.3a1.1,1.1,0,0,1-1.1-1.1v-14.5H25.93Zm0-16.7H2.2V5.494a1.1,1.1,0,0,1,1.1-1.1H4.615v2.2h2.2v-2.2h14.5v2.2h2.2v-2.2h1.318a1.1,1.1,0,0,1,1.1,1.1Z"/>
      </g>
    </g>
    <g id="Group_93357" data-name="Group 93357" transform="translate(4.175 12.635)">
      <g id="Group_93356" data-name="Group 93356">
        <rect id="Rectangle_26770" data-name="Rectangle 26770" width="2.197" height="2.197"/>
      </g>
    </g>
    <g id="Group_93359" data-name="Group 93359" transform="translate(8.57 12.635)">
      <g id="Group_93358" data-name="Group 93358">
        <rect id="Rectangle_26771" data-name="Rectangle 26771" width="2.197" height="2.197"/>
      </g>
    </g>
    <g id="Group_93361" data-name="Group 93361" transform="translate(12.965 12.635)">
      <g id="Group_93360" data-name="Group 93360">
        <rect id="Rectangle_26772" data-name="Rectangle 26772" width="2.197" height="2.197"/>
      </g>
    </g>
    <g id="Group_93363" data-name="Group 93363" transform="translate(17.36 12.635)">
      <g id="Group_93362" data-name="Group 93362">
        <rect id="Rectangle_26773" data-name="Rectangle 26773" width="2.197" height="2.197"/>
      </g>
    </g>
    <g id="Group_93365" data-name="Group 93365" transform="translate(21.754 12.635)">
      <g id="Group_93364" data-name="Group 93364">
        <rect id="Rectangle_26774" data-name="Rectangle 26774" width="2.197" height="2.197"/>
      </g>
    </g>
    <g id="Group_93367" data-name="Group 93367" transform="translate(4.175 17.03)">
      <g id="Group_93366" data-name="Group 93366">
        <rect id="Rectangle_26775" data-name="Rectangle 26775" width="2.197" height="2.197"/>
      </g>
    </g>
    <g id="Group_93369" data-name="Group 93369" transform="translate(8.57 17.03)">
      <g id="Group_93368" data-name="Group 93368">
        <rect id="Rectangle_26776" data-name="Rectangle 26776" width="2.197" height="2.197"/>
      </g>
    </g>
    <g id="Group_93371" data-name="Group 93371" transform="translate(12.965 17.03)">
      <g id="Group_93370" data-name="Group 93370">
        <rect id="Rectangle_26777" data-name="Rectangle 26777" width="2.197" height="2.197"/>
      </g>
    </g>
    <g id="Group_93373" data-name="Group 93373" transform="translate(17.36 17.03)">
      <g id="Group_93372" data-name="Group 93372">
        <rect id="Rectangle_26778" data-name="Rectangle 26778" width="2.197" height="2.197"/>
      </g>
    </g>
    <g id="Group_93375" data-name="Group 93375" transform="translate(4.175 21.425)">
      <g id="Group_93374" data-name="Group 93374">
        <rect id="Rectangle_26779" data-name="Rectangle 26779" width="2.197" height="2.197"/>
      </g>
    </g>
    <g id="Group_93377" data-name="Group 93377" transform="translate(8.57 21.425)">
      <g id="Group_93376" data-name="Group 93376">
        <rect id="Rectangle_26780" data-name="Rectangle 26780" width="2.197" height="2.197"/>
      </g>
    </g>
    <g id="Group_93379" data-name="Group 93379" transform="translate(12.965 21.425)">
      <g id="Group_93378" data-name="Group 93378">
        <rect id="Rectangle_26781" data-name="Rectangle 26781" width="2.197" height="2.197"/>
      </g>
    </g>
    <g id="Group_93381" data-name="Group 93381" transform="translate(17.36 21.425)">
      <g id="Group_93380" data-name="Group 93380">
        <rect id="Rectangle_26782" data-name="Rectangle 26782" width="2.197" height="2.197"/>
      </g>
    </g>
    <g id="Group_93383" data-name="Group 93383" transform="translate(21.754 17.03)">
      <g id="Group_93382" data-name="Group 93382">
        <rect id="Rectangle_26783" data-name="Rectangle 26783" width="2.197" height="2.197"/>
      </g>
    </g>
  </g>
</svg>
