<svg xmlns="http://www.w3.org/2000/svg" width="180.85" height="183" viewBox="0 0 180.85 183">
  <g id="guarantee" transform="translate(0)">
    <path id="Path_142158" data-name="Path 142158" d="M152.022,114.119a73.7,73.7,0,1,0-123.193,0L0,156.163l32.988-6.15L39.139,183l27.186-39.65a73.721,73.721,0,0,0,48.2,0L141.712,183l6.15-32.988,32.988,6.15ZM44.968,155.425l-3.355-17.994-17.993,3.356L35.762,123.08a74.181,74.181,0,0,0,20.485,15.9ZM27.51,73.7a62.915,62.915,0,1,1,62.914,62.916A62.986,62.986,0,0,1,27.51,73.7Zm111.727,63.732-3.355,17.994L124.6,138.98a74.181,74.181,0,0,0,20.485-15.9l12.141,17.706Zm0,0" fill="#ffa2ba"/>
    <path id="Path_142159" data-name="Path 142159" d="M171,172.72l-17.536-17.535-7.626,7.626L171,187.974l51.439-51.438-7.626-7.626Zm0,0" transform="translate(-93.711 -82.835)" fill="#ffa2ba"/>
  </g>
</svg>
