<svg xmlns="http://www.w3.org/2000/svg" width="90" height="90" viewBox="0 0 90 90">
  <g id="Group_84254" data-name="Group 84254" transform="translate(-1239 -296)">
    <circle id="Ellipse_580" data-name="Ellipse 580" cx="45" cy="45" r="45" transform="translate(1239 296)" fill="#051917"/>
    <g id="mail" transform="translate(1268 254.016)">
      <g id="Group_84363" data-name="Group 84363" transform="translate(0 76)">
        <path id="Path_142176" data-name="Path 142176" d="M29.634,76H2.856A2.86,2.86,0,0,0,0,78.856V95.989a2.86,2.86,0,0,0,2.856,2.856H29.634a2.859,2.859,0,0,0,2.856-2.856V78.856A2.858,2.858,0,0,0,29.634,76Zm-.4,1.9L18.264,88.816a2.856,2.856,0,0,1-4.04,0L3.255,77.9ZM1.9,95.6V79.244l8.226,8.183Zm1.353,1.339L11.48,88.77l1.4,1.392a4.759,4.759,0,0,0,6.729,0l1.4-1.394,8.223,8.171ZM30.586,95.6,22.36,87.427l8.226-8.183Z" transform="translate(0 -76)" fill="#fff"/>
      </g>
    </g>
  </g>
</svg>
