<svg xmlns="http://www.w3.org/2000/svg" width="28.813" height="28.813" viewBox="0 0 28.813 28.813">
  <g id="warning" transform="translate(-1.25 -1.25)">
    <circle id="Ellipse_5591" data-name="Ellipse 5591" cx="1.34" cy="1.34" r="1.34" transform="translate(16.996 23.697) rotate(180)" fill="#fff"/>
    <path id="Path_142189" data-name="Path 142189" d="M14.651,18.336a1.005,1.005,0,1,0,2.01,0Zm2.01-9.381a1.005,1.005,0,1,0-2.01,0Zm11.391,6.7a12.4,12.4,0,0,1-12.4,12.4v2.01A14.406,14.406,0,0,0,30.062,15.656Zm-12.4,12.4a12.4,12.4,0,0,1-12.4-12.4H1.25A14.406,14.406,0,0,0,15.656,30.062Zm-12.4-12.4a12.4,12.4,0,0,1,12.4-12.4V1.25A14.406,14.406,0,0,0,1.25,15.656Zm12.4-12.4a12.4,12.4,0,0,1,12.4,12.4h2.01A14.406,14.406,0,0,0,15.656,1.25Zm1.005,15.076V8.956h-2.01v9.381Z" fill="#fff"/>
  </g>
</svg>
